<svg width="40" height="40" viewBox="0 0 40 40" fill="none" xmlns="http://www.w3.org/2000/svg">
<path d="M39.9856 18C39.8953 15.7397 39.3607 13.5193 38.4121 11.4657C37.3794 9.22467 35.9184 7.20733 34.1112 5.52725C30.3091 1.96292 25.2977 0 20.0001 0C16.0444 -1.22794e-05 12.1776 1.17296 8.88863 3.37059C5.59964 5.56821 3.03618 8.69179 1.52242 12.3463C0.00866397 16.0008 -0.387403 20.0222 0.384307 23.9018C1.15602 27.7814 3.06084 31.3451 5.8579 34.1422C9.58364 37.8679 14.6291 39.9729 19.898 39.9997C25.1669 40.0266 30.2336 37.9732 33.9971 34.2857L32.1305 32.381C28.8966 35.5643 24.5378 37.3438 20.0001 37.3333C10.4425 37.3333 2.66674 29.5576 2.66674 20C2.66674 10.4424 10.4425 2.66667 20.0001 2.66667C29.3957 2.66667 37.3334 9.99375 37.3334 18.6667V21.6667C37.3334 24.0561 35.2399 26 32.6667 26C30.0936 26 28.0001 24.0561 28.0001 21.6667V12H25.3334V14.2292C24.096 13.0799 22.5385 12.3337 20.8673 12.0895C19.1962 11.8454 17.4903 12.1149 15.9758 12.8622C14.4613 13.6095 13.2096 14.7994 12.3866 16.2742C11.5637 17.749 11.2083 19.4391 11.3677 21.1204C11.527 22.8018 12.1935 24.395 13.2788 25.689C14.3641 26.983 15.817 27.9166 17.445 28.3661C19.0729 28.8156 20.799 28.7599 22.3946 28.2062C23.9901 27.6525 25.3797 26.627 26.3792 25.2657C27.6631 27.3017 30.0009 28.6667 32.6667 28.6667C36.7103 28.6667 40.0001 25.5265 40.0001 21.6667V18H39.9856ZM19.6667 26C18.546 26 17.4504 25.6677 16.5185 25.045C15.5866 24.4223 14.8603 23.5373 14.4314 22.5019C14.0025 21.4664 13.8903 20.327 14.109 19.2278C14.3276 18.1286 14.8673 17.1189 15.6598 16.3264C16.4523 15.5339 17.462 14.9942 18.5612 14.7755C19.6604 14.5569 20.7998 14.6691 21.8353 15.098C22.8707 15.5269 23.7557 16.2532 24.3784 17.1851C25.0011 18.117 25.3334 19.2126 25.3334 20.3333C25.3317 21.8357 24.7341 23.2761 23.6718 24.3384C22.6095 25.4007 21.1691 25.9983 19.6667 26Z" fill="#F6F6F6" fill-opacity="0.8"/>
</svg>
