<svg width="127" height="70" viewBox="0 0 127 70" fill="none" xmlns="http://www.w3.org/2000/svg">
<path d="M13 4.65873L25 31.7778L18.5 41.881L21.5 52.5159L22.5 54.1111V68.4683H6V52.5159V41.881H12V51.4524L6 52.5159H21.5L18.5 41.881L25 31.7778L14 35.5L1.5 31.7778L13 4.65873Z" fill="#5166A8"/>
<path d="M25 31.7778L13 4.65873L1.5 31.7778L14 35.5L25 31.7778ZM25 31.7778L18.5 41.881L21.5 52.5159M21.5 52.5159L22.5 54.1111V68.4683H6V52.5159M21.5 52.5159H6M6 52.5159V41.881H12V51.4524L6 52.5159Z" stroke="#5166A8"/>
<path d="M13.5 34.389L24.5 32.3095L18.5 40.8175H12.5V42.4127H21V51.9841L12.5 52.2611H5.5V68.4683L3 67.4048V54.1111L5.5 52.2611H12.5V42.4127V40.8175L13.5 34.389Z" fill="#324276"/>
<path d="M12.5 40.8175L13.5 34.389L24.5 32.3095L18.5 40.8175H12.5ZM12.5 40.8175V42.4127M12.5 52.2611L21 51.9841V42.4127H12.5M12.5 52.2611V42.4127M12.5 52.2611H5.5M5.5 52.2611L3 54.1111V67.4048L5.5 68.4683V52.2611Z" stroke="#324276"/>
<path d="M12.5 34.4365L2 32.3095L8 40.8175H11.6079L12.5 34.4365Z" fill="#3B4C82" stroke="#3B4C82"/>
<ellipse cx="13" cy="32.9621" rx="1.5" ry="1.52273" fill="#000C31"/>
<path d="M21.5 52.25L22.5 53.7727V69H5.5M21.5 52.25V41.5909H19M21.5 52.25H5.5V69M19 41.5909L25.5 31.947L13 2M19 41.5909H7.5M13 2L1 31.947L7.5 41.5909M13 2V31.947M7.5 41.5909H5V52.25L3 54.0265V67.7311L5.5 69" stroke="#000C31"/>
<path d="M9.5 20.6111L11.5 8.38095L8.5 19.5476L6.5 31.7778L9.5 20.6111Z" fill="url(#paint0_linear_1273_209)"/>
<path d="M6 42.9444H6.5V51.4524L6 47.7302V42.9444Z" fill="url(#paint1_linear_1273_209)"/>
<path d="M35.92 69.2C34.8267 69.2 33.82 69.0267 32.9 68.68C31.9933 68.32 31.2 67.82 30.52 67.18C29.84 66.5267 29.3133 65.76 28.94 64.88C28.5667 64 28.38 63.04 28.38 62C28.38 60.96 28.5667 60 28.94 59.12C29.3133 58.24 29.84 57.48 30.52 56.84C31.2133 56.1867 32.02 55.6867 32.94 55.34C33.86 54.98 34.8667 54.8 35.96 54.8C37.1467 54.8 38.2133 54.9933 39.16 55.38C40.12 55.7667 40.9267 56.3333 41.58 57.08L39.94 58.68C39.3933 58.1333 38.8 57.7333 38.16 57.48C37.5333 57.2133 36.84 57.08 36.08 57.08C35.3467 57.08 34.6667 57.2 34.04 57.44C33.4133 57.68 32.8733 58.02 32.42 58.46C31.9667 58.9 31.6133 59.42 31.36 60.02C31.12 60.62 31 61.28 31 62C31 62.7067 31.12 63.36 31.36 63.96C31.6133 64.56 31.9667 65.0867 32.42 65.54C32.8733 65.98 33.4067 66.32 34.02 66.56C34.6333 66.8 35.3133 66.92 36.06 66.92C36.7533 66.92 37.42 66.8133 38.06 66.6C38.7133 66.3733 39.3333 66 39.92 65.48L41.4 67.42C40.6667 68.0067 39.8133 68.4533 38.84 68.76C37.88 69.0533 36.9067 69.2 35.92 69.2ZM38.94 67.08V61.84H41.4V67.42L38.94 67.08ZM49.6092 69.14C48.4226 69.14 47.3826 68.9067 46.4892 68.44C45.6092 67.96 44.9226 67.3067 44.4292 66.48C43.9492 65.6533 43.7092 64.7133 43.7092 63.66C43.7092 62.5933 43.9426 61.6533 44.4092 60.84C44.8892 60.0133 45.5426 59.3667 46.3692 58.9C47.2092 58.4333 48.1626 58.2 49.2292 58.2C50.2692 58.2 51.1959 58.4267 52.0092 58.88C52.8226 59.3333 53.4626 59.9733 53.9292 60.8C54.3959 61.6267 54.6292 62.6 54.6292 63.72C54.6292 63.8267 54.6226 63.9467 54.6092 64.08C54.6092 64.2133 54.6026 64.34 54.5892 64.46H45.6892V62.8H53.2692L52.2892 63.32C52.3026 62.7067 52.1759 62.1667 51.9092 61.7C51.6426 61.2333 51.2759 60.8667 50.8092 60.6C50.3559 60.3333 49.8292 60.2 49.2292 60.2C48.6159 60.2 48.0759 60.3333 47.6092 60.6C47.1559 60.8667 46.7959 61.24 46.5292 61.72C46.2759 62.1867 46.1492 62.74 46.1492 63.38V63.78C46.1492 64.42 46.2959 64.9867 46.5892 65.48C46.8826 65.9733 47.2959 66.3533 47.8292 66.62C48.3626 66.8867 48.9759 67.02 49.6692 67.02C50.2692 67.02 50.8092 66.9267 51.2892 66.74C51.7692 66.5533 52.1959 66.26 52.5692 65.86L53.9092 67.4C53.4292 67.96 52.8226 68.3933 52.0892 68.7C51.3692 68.9933 50.5426 69.14 49.6092 69.14ZM61.0506 69.14C59.8773 69.14 58.9706 68.84 58.3306 68.24C57.6906 67.6267 57.3706 66.7267 57.3706 65.54V55.96H59.8706V65.48C59.8706 65.9867 59.9973 66.38 60.2506 66.66C60.5173 66.94 60.884 67.08 61.3506 67.08C61.9106 67.08 62.3773 66.9333 62.7506 66.64L63.4506 68.42C63.1573 68.66 62.7973 68.84 62.3706 68.96C61.944 69.08 61.504 69.14 61.0506 69.14ZM55.6106 60.4V58.4H62.7306V60.4H55.6106ZM69.8872 69L63.7672 55H66.5872L72.0472 67.66H70.4272L75.9472 55H78.5472L72.4472 69H69.8872ZM79.8822 69V58.32H82.3822V69H79.8822ZM81.1422 56.56C80.6755 56.56 80.2889 56.4133 79.9822 56.12C79.6889 55.8267 79.5422 55.4733 79.5422 55.06C79.5422 54.6333 79.6889 54.28 79.9822 54C80.2889 53.7067 80.6755 53.56 81.1422 53.56C81.6089 53.56 81.9889 53.7 82.2822 53.98C82.5889 54.2467 82.7422 54.5867 82.7422 55C82.7422 55.44 82.5955 55.8133 82.3022 56.12C82.0089 56.4133 81.6222 56.56 81.1422 56.56ZM88.9634 69.14C88.0701 69.14 87.2101 69.0267 86.3834 68.8C85.5701 68.56 84.9234 68.2733 84.4434 67.94L85.4034 66.04C85.8834 66.3467 86.4568 66.6 87.1234 66.8C87.7901 67 88.4568 67.1 89.1234 67.1C89.9101 67.1 90.4768 66.9933 90.8234 66.78C91.1834 66.5667 91.3634 66.28 91.3634 65.92C91.3634 65.6267 91.2434 65.4067 91.0034 65.26C90.7634 65.1 90.4501 64.98 90.0634 64.9C89.6768 64.82 89.2434 64.7467 88.7634 64.68C88.2968 64.6133 87.8234 64.5267 87.3434 64.42C86.8768 64.3 86.4501 64.1333 86.0634 63.92C85.6768 63.6933 85.3634 63.3933 85.1234 63.02C84.8834 62.6467 84.7634 62.1533 84.7634 61.54C84.7634 60.86 84.9568 60.2733 85.3434 59.78C85.7301 59.2733 86.2701 58.8867 86.9634 58.62C87.6701 58.34 88.5034 58.2 89.4634 58.2C90.1834 58.2 90.9101 58.28 91.6434 58.44C92.3768 58.6 92.9834 58.8267 93.4634 59.12L92.5034 61.02C91.9968 60.7133 91.4834 60.5067 90.9634 60.4C90.4568 60.28 89.9501 60.22 89.4434 60.22C88.6834 60.22 88.1168 60.3333 87.7434 60.56C87.3834 60.7867 87.2034 61.0733 87.2034 61.42C87.2034 61.74 87.3234 61.98 87.5634 62.14C87.8034 62.3 88.1168 62.4267 88.5034 62.52C88.8901 62.6133 89.3168 62.6933 89.7834 62.76C90.2634 62.8133 90.7368 62.9 91.2034 63.02C91.6701 63.14 92.0968 63.3067 92.4834 63.52C92.8834 63.72 93.2034 64.0067 93.4434 64.38C93.6834 64.7533 93.8034 65.24 93.8034 65.84C93.8034 66.5067 93.6034 67.0867 93.2034 67.58C92.8168 68.0733 92.2634 68.46 91.5434 68.74C90.8234 69.0067 89.9634 69.14 88.9634 69.14ZM100.476 69.14C99.5697 69.14 98.7697 68.9733 98.0764 68.64C97.3831 68.2933 96.8431 67.7733 96.4564 67.08C96.0697 66.3733 95.8764 65.4867 95.8764 64.42V58.32H98.3764V64.08C98.3764 65.04 98.5897 65.76 99.0164 66.24C99.4564 66.7067 100.076 66.94 100.876 66.94C101.463 66.94 101.97 66.82 102.396 66.58C102.836 66.34 103.176 65.98 103.416 65.5C103.67 65.02 103.796 64.4267 103.796 63.72V58.32H106.296V69H103.916V66.12L104.336 67C103.976 67.6933 103.45 68.2267 102.756 68.6C102.063 68.96 101.303 69.14 100.476 69.14ZM116.15 69V66.84L116.01 66.38V62.6C116.01 61.8667 115.79 61.3 115.35 60.9C114.91 60.4867 114.243 60.28 113.35 60.28C112.75 60.28 112.156 60.3733 111.57 60.56C110.996 60.7467 110.51 61.0067 110.11 61.34L109.13 59.52C109.703 59.08 110.383 58.7533 111.17 58.54C111.97 58.3133 112.796 58.2 113.65 58.2C115.196 58.2 116.39 58.5733 117.23 59.32C118.083 60.0533 118.51 61.1933 118.51 62.74V69H116.15ZM112.79 69.14C111.99 69.14 111.29 69.0067 110.69 68.74C110.09 68.46 109.623 68.08 109.29 67.6C108.97 67.1067 108.81 66.5533 108.81 65.94C108.81 65.34 108.95 64.8 109.23 64.32C109.523 63.84 109.996 63.46 110.65 63.18C111.303 62.9 112.17 62.76 113.25 62.76H116.35V64.42H113.43C112.576 64.42 112.003 64.56 111.71 64.84C111.416 65.1067 111.27 65.44 111.27 65.84C111.27 66.2933 111.45 66.6533 111.81 66.92C112.17 67.1867 112.67 67.32 113.31 67.32C113.923 67.32 114.47 67.18 114.95 66.9C115.443 66.62 115.796 66.2067 116.01 65.66L116.43 67.16C116.19 67.7867 115.756 68.2733 115.13 68.62C114.516 68.9667 113.736 69.14 112.79 69.14ZM121.718 69V54.16H124.218V69H121.718Z" fill="#0C134F"/>
<defs>
<linearGradient id="paint0_linear_1273_209" x1="9" y1="8.38095" x2="9" y2="31.7778" gradientUnits="userSpaceOnUse">
<stop stop-color="#A0B1E8"/>
<stop offset="0.515625" stop-color="#A0B1E8"/>
<stop offset="1" stop-color="white" stop-opacity="0"/>
</linearGradient>
<linearGradient id="paint1_linear_1273_209" x1="6.25" y1="42.9444" x2="5.96728" y2="51.9831" gradientUnits="userSpaceOnUse">
<stop stop-color="#A0B1E8"/>
<stop offset="1" stop-color="#A0B1E8" stop-opacity="0"/>
</linearGradient>
</defs>
</svg>
