<svg width="79" height="46" viewBox="0 0 79 46" fill="none" xmlns="http://www.w3.org/2000/svg">
<path d="M9 1.5L16.6735 20.4467L12.4286 27.0447L14.3878 33.99L15.0408 35.0317V44.4078H4.26531L4 34V27L8.18368 27.0447V33.5L4 34L14.3878 33.99L12.4286 27.0447L16.6735 20.4467L9.4898 22.8776L1.32654 20.4467L9 1.5Z" fill="#5166A8"/>
<path d="M16.6735 20.4467L9 1.5L1.32654 20.4467L9.4898 22.8776L16.6735 20.4467ZM16.6735 20.4467L12.4286 27.0447L14.3878 33.99M14.3878 33.99L15.0408 35.0317V44.4078H4.26531L4 34M14.3878 33.99L4 34M4 34V27L8.18368 27.0447V33.5L4 34Z" stroke="#5166A8" stroke-width="0.5"/>
<path d="M9.16326 22.152L16.3469 20.794L12.5 26.5H8.5L8.5102 27H11H14L14.0612 33.6427L8.5102 33.8236H3.93877V44.4078L2.5 43.5V39.5V35L3.93877 33.8236H8.5102V27L8.5 26.5L9.16326 22.152Z" fill="#324276"/>
<path d="M8.5 26.5L9.16326 22.152L16.3469 20.794L12.5 26.5H8.5ZM8.5 26.5L8.5102 27M8.5102 33.8236L14.0612 33.6427L14 27H11H8.5102M8.5102 33.8236V27M8.5102 33.8236H3.93877M3.93877 33.8236L2.5 35V39.5V43.5L3.93877 44.4078V33.8236Z" stroke="#324276" stroke-width="0.5"/>
<path d="M8.51019 22.183L2 21L5.57142 26.3502H7.92757L8.51019 22.183Z" fill="#3B4C82" stroke="#3B4C82"/>
<ellipse cx="8.83674" cy="21.2202" rx="0.979592" ry="0.994434" fill="#000C31"/>
<path d="M14.3878 33.8163L15.0408 34.8108V44.7551H3.93878M14.3878 33.8163V26.8553H12.7551M14.3878 33.8163H3.93878V44.7551M12.7551 26.8553L17 20.5572L8.83673 1M12.7551 26.8553H5.2449M8.83673 1L1 20.5572L5.2449 26.8553M8.83673 1V20.5572M5.2449 26.8553H3.61224V33.8163L2.30612 34.9765V43.9264L3.93878 44.7551" stroke="#000C31" stroke-width="0.5"/>
<path d="M6.55101 13.1542L7.85713 5.16715L5.89795 12.4597L4.59183 20.4467L6.55101 13.1542Z" fill="url(#paint0_linear_1277_250)"/>
<path d="M4.26532 27.7392H4.59185V33.2954L4.26532 30.8646V27.7392Z" fill="url(#paint1_linear_1277_250)"/>
<path d="M24.052 45.12C23.396 45.12 22.792 45.016 22.24 44.808C21.696 44.592 21.22 44.292 20.812 43.908C20.404 43.516 20.088 43.056 19.864 42.528C19.64 42 19.528 41.424 19.528 40.8C19.528 40.176 19.64 39.6 19.864 39.072C20.088 38.544 20.404 38.088 20.812 37.704C21.228 37.312 21.712 37.012 22.264 36.804C22.816 36.588 23.42 36.48 24.076 36.48C24.788 36.48 25.428 36.596 25.996 36.828C26.572 37.06 27.056 37.4 27.448 37.848L26.464 38.808C26.136 38.48 25.78 38.24 25.396 38.088C25.02 37.928 24.604 37.848 24.148 37.848C23.708 37.848 23.3 37.92 22.924 38.064C22.548 38.208 22.224 38.412 21.952 38.676C21.68 38.94 21.468 39.252 21.316 39.612C21.172 39.972 21.1 40.368 21.1 40.8C21.1 41.224 21.172 41.616 21.316 41.976C21.468 42.336 21.68 42.652 21.952 42.924C22.224 43.188 22.544 43.392 22.912 43.536C23.28 43.68 23.688 43.752 24.136 43.752C24.552 43.752 24.952 43.688 25.336 43.56C25.728 43.424 26.1 43.2 26.452 42.888L27.34 44.052C26.9 44.404 26.388 44.672 25.804 44.856C25.228 45.032 24.644 45.12 24.052 45.12ZM25.864 43.848V40.704H27.34V44.052L25.864 43.848ZM32.2655 45.084C31.5535 45.084 30.9295 44.944 30.3935 44.664C29.8655 44.376 29.4535 43.984 29.1575 43.488C28.8695 42.992 28.7255 42.428 28.7255 41.796C28.7255 41.156 28.8655 40.592 29.1455 40.104C29.4335 39.608 29.8255 39.22 30.3215 38.94C30.8255 38.66 31.3975 38.52 32.0375 38.52C32.6615 38.52 33.2175 38.656 33.7055 38.928C34.1935 39.2 34.5775 39.584 34.8575 40.08C35.1375 40.576 35.2775 41.16 35.2775 41.832C35.2775 41.896 35.2735 41.968 35.2655 42.048C35.2655 42.128 35.2615 42.204 35.2535 42.276H29.9135V41.28H34.4615L33.8735 41.592C33.8815 41.224 33.8055 40.9 33.6455 40.62C33.4855 40.34 33.2655 40.12 32.9855 39.96C32.7135 39.8 32.3975 39.72 32.0375 39.72C31.6695 39.72 31.3455 39.8 31.0655 39.96C30.7935 40.12 30.5775 40.344 30.4175 40.632C30.2655 40.912 30.1895 41.244 30.1895 41.628V41.868C30.1895 42.252 30.2775 42.592 30.4535 42.888C30.6295 43.184 30.8775 43.412 31.1975 43.572C31.5175 43.732 31.8855 43.812 32.3015 43.812C32.6615 43.812 32.9855 43.756 33.2735 43.644C33.5615 43.532 33.8175 43.356 34.0415 43.116L34.8455 44.04C34.5575 44.376 34.1935 44.636 33.7535 44.82C33.3215 44.996 32.8255 45.084 32.2655 45.084ZM39.1304 45.084C38.4264 45.084 37.8824 44.904 37.4984 44.544C37.1144 44.176 36.9224 43.636 36.9224 42.924V37.176H38.4224V42.888C38.4224 43.192 38.4984 43.428 38.6504 43.596C38.8104 43.764 39.0304 43.848 39.3104 43.848C39.6464 43.848 39.9264 43.76 40.1504 43.584L40.5704 44.652C40.3944 44.796 40.1784 44.904 39.9224 44.976C39.6664 45.048 39.4024 45.084 39.1304 45.084ZM35.8664 39.84V38.64H40.1384V39.84H35.8664ZM44.4323 45L40.7603 36.6H42.4523L45.7283 44.196H44.7563L48.0683 36.6H49.6283L45.9683 45H44.4323ZM50.4293 45V38.592H51.9293V45H50.4293ZM51.1853 37.536C50.9053 37.536 50.6733 37.448 50.4893 37.272C50.3133 37.096 50.2253 36.884 50.2253 36.636C50.2253 36.38 50.3133 36.168 50.4893 36C50.6733 35.824 50.9053 35.736 51.1853 35.736C51.4653 35.736 51.6933 35.82 51.8693 35.988C52.0533 36.148 52.1453 36.352 52.1453 36.6C52.1453 36.864 52.0573 37.088 51.8813 37.272C51.7053 37.448 51.4733 37.536 51.1853 37.536ZM55.8781 45.084C55.3421 45.084 54.8261 45.016 54.3301 44.88C53.8421 44.736 53.4541 44.564 53.1661 44.364L53.7421 43.224C54.0301 43.408 54.3741 43.56 54.7741 43.68C55.1741 43.8 55.5741 43.86 55.9741 43.86C56.4461 43.86 56.7861 43.796 56.9941 43.668C57.2101 43.54 57.3181 43.368 57.3181 43.152C57.3181 42.976 57.2461 42.844 57.1021 42.756C56.9581 42.66 56.7701 42.588 56.5381 42.54C56.3061 42.492 56.0461 42.448 55.7581 42.408C55.4781 42.368 55.1941 42.316 54.9061 42.252C54.6261 42.18 54.3701 42.08 54.1381 41.952C53.9061 41.816 53.7181 41.636 53.5741 41.412C53.4301 41.188 53.3581 40.892 53.3581 40.524C53.3581 40.116 53.4741 39.764 53.7061 39.468C53.9381 39.164 54.2621 38.932 54.6781 38.772C55.1021 38.604 55.6021 38.52 56.1781 38.52C56.6101 38.52 57.0461 38.568 57.4861 38.664C57.9261 38.76 58.2901 38.896 58.5781 39.072L58.0021 40.212C57.6981 40.028 57.3901 39.904 57.0781 39.84C56.7741 39.768 56.4701 39.732 56.1661 39.732C55.7101 39.732 55.3701 39.8 55.1461 39.936C54.9301 40.072 54.8221 40.244 54.8221 40.452C54.8221 40.644 54.8941 40.788 55.0381 40.884C55.1821 40.98 55.3701 41.056 55.6021 41.112C55.8341 41.168 56.0901 41.216 56.3701 41.256C56.6581 41.288 56.9421 41.34 57.2221 41.412C57.5021 41.484 57.7581 41.584 57.9901 41.712C58.2301 41.832 58.4221 42.004 58.5661 42.228C58.7101 42.452 58.7821 42.744 58.7821 43.104C58.7821 43.504 58.6621 43.852 58.4221 44.148C58.1901 44.444 57.8581 44.676 57.4261 44.844C56.9941 45.004 56.4781 45.084 55.8781 45.084ZM62.7858 45.084C62.2418 45.084 61.7618 44.984 61.3458 44.784C60.9298 44.576 60.6058 44.264 60.3738 43.848C60.1418 43.424 60.0258 42.892 60.0258 42.252V38.592H61.5258V42.048C61.5258 42.624 61.6538 43.056 61.9098 43.344C62.1738 43.624 62.5458 43.764 63.0258 43.764C63.3778 43.764 63.6818 43.692 63.9378 43.548C64.2018 43.404 64.4058 43.188 64.5498 42.9C64.7018 42.612 64.7778 42.256 64.7778 41.832V38.592H66.2778V45H64.8498V43.272L65.1018 43.8C64.8858 44.216 64.5698 44.536 64.1538 44.76C63.7378 44.976 63.2818 45.084 62.7858 45.084ZM72.1898 45V43.704L72.1058 43.428V41.16C72.1058 40.72 71.9738 40.38 71.7098 40.14C71.4458 39.892 71.0458 39.768 70.5098 39.768C70.1498 39.768 69.7938 39.824 69.4418 39.936C69.0978 40.048 68.8058 40.204 68.5658 40.404L67.9778 39.312C68.3218 39.048 68.7298 38.852 69.2018 38.724C69.6818 38.588 70.1778 38.52 70.6898 38.52C71.6178 38.52 72.3338 38.744 72.8378 39.192C73.3498 39.632 73.6058 40.316 73.6058 41.244V45H72.1898ZM70.1738 45.084C69.6938 45.084 69.2738 45.004 68.9138 44.844C68.5538 44.676 68.2738 44.448 68.0738 44.16C67.8818 43.864 67.7858 43.532 67.7858 43.164C67.7858 42.804 67.8698 42.48 68.0378 42.192C68.2138 41.904 68.4978 41.676 68.8898 41.508C69.2818 41.34 69.8018 41.256 70.4498 41.256H72.3098V42.252H70.5578C70.0458 42.252 69.7018 42.336 69.5258 42.504C69.3498 42.664 69.2618 42.864 69.2618 43.104C69.2618 43.376 69.3698 43.592 69.5858 43.752C69.8018 43.912 70.1018 43.992 70.4858 43.992C70.8538 43.992 71.1818 43.908 71.4698 43.74C71.7658 43.572 71.9778 43.324 72.1058 42.996L72.3578 43.896C72.2138 44.272 71.9538 44.564 71.5778 44.772C71.2098 44.98 70.7418 45.084 70.1738 45.084ZM75.5309 45V36.096H77.0309V45H75.5309Z" fill="#0C134F"/>
<defs>
<linearGradient id="paint0_linear_1277_250" x1="6.22448" y1="5.16715" x2="6.22448" y2="20.4467" gradientUnits="userSpaceOnUse">
<stop stop-color="#A0B1E8"/>
<stop offset="0.515625" stop-color="#A0B1E8"/>
<stop offset="1" stop-color="white" stop-opacity="0"/>
</linearGradient>
<linearGradient id="paint1_linear_1277_250" x1="4.42859" y1="27.7392" x2="4.24395" y2="33.642" gradientUnits="userSpaceOnUse">
<stop stop-color="#A0B1E8"/>
<stop offset="1" stop-color="#A0B1E8" stop-opacity="0"/>
</linearGradient>
</defs>
</svg>
